<svg width="128" height="128" viewBox="0 0 128 128" fill="none" xmlns="http://www.w3.org/2000/svg">
  <ellipse cx="64" cy="118" rx="30" ry="7" fill="#00000012"/>
  <path d="M35 44C35 25.7746 49.7746 11 68 11C86.2254 11 101 25.7746 101 44V76C101 99.196 82.196 118 59 118H57C44.8497 118 35 108.15 35 96V44Z" fill="#FFD54A" stroke="#222222" stroke-width="4"/>
  <path d="M46 11L55 29" stroke="#222222" stroke-width="4" stroke-linecap="round"/>
  <path d="M88 12L79 29" stroke="#222222" stroke-width="4" stroke-linecap="round"/>
  <circle cx="44" cy="15" r="6" fill="#FFD54A" stroke="#222222" stroke-width="4"/>
  <circle cx="90" cy="16" r="6" fill="#FFD54A" stroke="#222222" stroke-width="4"/>
  <path d="M43 44C45.5 37.5 53.5 35.5 62 38" stroke="#222222" stroke-width="5" stroke-linecap="round"/>
  <path d="M87 42C81 37 73 37.5 66 41" stroke="#222222" stroke-width="5" stroke-linecap="round"/>
  <ellipse cx="53" cy="51" rx="15" ry="15" fill="white" stroke="#222222" stroke-width="4"/>
  <ellipse cx="79" cy="51" rx="15" ry="15" fill="white" stroke="#222222" stroke-width="4"/>
  <ellipse cx="51" cy="54" rx="6" ry="6" fill="#222222"/>
  <ellipse cx="77" cy="54" rx="6" ry="6" fill="#222222"/>
  <path d="M54 78C60 76 68 76 76 78" stroke="#222222" stroke-width="4" stroke-linecap="round"/>
  <path d="M40 88H96" stroke="#222222" stroke-width="8"/>
  <path d="M37 98H96" stroke="#222222" stroke-width="8"/>
  <path d="M48 88C48 95 58 100 68 100C78 100 88 95 88 88" stroke="#F7B82B" stroke-width="8"/>
  <path d="M40 104C46 95 57 92 68 92C79 92 90 95 96 104" stroke="#222222" stroke-width="4" stroke-linecap="round"/>
  <path d="M50 108L46 121" stroke="#222222" stroke-width="4" stroke-linecap="round"/>
  <path d="M80 108L84 121" stroke="#222222" stroke-width="4" stroke-linecap="round"/>
  <path d="M41 88C34 82 29 82 24 85" stroke="#222222" stroke-width="4" stroke-linecap="round"/>
  <path d="M94 88C100 82 105 82 110 85" stroke="#222222" stroke-width="4" stroke-linecap="round"/>
  <path d="M20 81L28 85" stroke="#222222" stroke-width="4" stroke-linecap="round"/>
  <path d="M108 81L100 85" stroke="#222222" stroke-width="4" stroke-linecap="round"/>
</svg>
